<?xml version="1.0" encoding="utf-8"?>
<!-- Generator: Adobe Illustrator 16.0.0, SVG Export Plug-In . SVG Version: 6.00 Build 0)  -->
<!DOCTYPE svg PUBLIC "-//W3C//DTD SVG 1.1//EN" "http://www.w3.org/Graphics/SVG/1.1/DTD/svg11.dtd">
<svg version="1.1" id="Capa_1" xmlns="http://www.w3.org/2000/svg" xmlns:xlink="http://www.w3.org/1999/xlink" x="0px" y="0px"
	 width="33px" height="33px" viewBox="0 0 33 33" enable-background="new 0 0 33 33" xml:space="preserve">
<circle opacity="0.1" fill="#1D1D1B" cx="16.5" cy="16.5" r="14.037"/>
<path fill="#FFFFFF" d="M21.182,14.459c0-2.746-2.227-4.973-4.973-4.973s-4.973,2.227-4.973,4.973c0,0.747,0.177,1.449,0.472,2.084
	h-0.013c0.2,0.23,3.872,7.611,4.514,7.611c0.797,0,4.513-7.611,4.513-7.611H20.71C21.005,15.908,21.182,15.207,21.182,14.459z
	 M16.209,12.487c1.09,0,1.973,0.883,1.973,1.971c0,1.09-0.883,1.973-1.973,1.973c-1.088,0-1.971-0.883-1.971-1.973
	C14.238,13.37,15.121,12.487,16.209,12.487z"/>
</svg>
