<?xml version="1.0" encoding="utf-8"?>
<!-- Generator: Adobe Illustrator 16.0.0, SVG Export Plug-In . SVG Version: 6.00 Build 0)  -->
<!DOCTYPE svg PUBLIC "-//W3C//DTD SVG 1.1//EN" "http://www.w3.org/Graphics/SVG/1.1/DTD/svg11.dtd">
<svg version="1.1" id="Capa_1" xmlns="http://www.w3.org/2000/svg" xmlns:xlink="http://www.w3.org/1999/xlink" x="0px" y="0px"
	 width="33px" height="33px" viewBox="0 0 33 33" enable-background="new 0 0 33 33" xml:space="preserve">
<circle opacity="0.1" fill="#1D1D1B" cx="16.95" cy="16.808" r="14.037"/>
<g>
	<polygon fill="#FFFFFF" points="17.308,18.664 24.732,11.839 9.426,11.839 	"/>
	<polygon fill="#FFFFFF" points="25.082,12.272 19.834,17.097 25.082,21.437 	"/>
	<polygon fill="#FFFFFF" points="14.446,17.132 8.817,12.258 8.817,21.451 	"/>
	<path fill="#FFFFFF" d="M19.549,17.606c-0.024-0.019-0.037-0.004-0.056-0.028l-1.913,1.781c-0.074,0.066-0.17,0.113-0.265,0.113
		c-0.092,0-0.183-0.026-0.255-0.092l-2.008-1.732c-0.015,0.014-0.022-0.052-0.042-0.035l-5.536,4.164h15.224L19.549,17.606z"/>
</g>
</svg>
