<?xml version="1.0" encoding="utf-8"?>
<!-- Generator: Adobe Illustrator 16.0.0, SVG Export Plug-In . SVG Version: 6.00 Build 0)  -->
<!DOCTYPE svg PUBLIC "-//W3C//DTD SVG 1.1//EN" "http://www.w3.org/Graphics/SVG/1.1/DTD/svg11.dtd">
<svg version="1.1" id="Capa_1" xmlns="http://www.w3.org/2000/svg" xmlns:xlink="http://www.w3.org/1999/xlink" x="0px" y="0px"
	 width="163.5px" height="54px" viewBox="0 0 163.5 54" enable-background="new 0 0 163.5 54" xml:space="preserve">
<g id="Capa_3">
	<g>
		<path fill="#FFFFFF" d="M22.754,18.882c2.276,2.278,3.416,5.021,3.416,8.205c0,3.207-1.138,5.951-3.416,8.229
			c-2.256,2.252-4.998,3.392-8.207,3.392c-3.206,0-5.949-1.14-8.227-3.392c-2.253-2.277-3.392-5.021-3.392-8.229
			s1.138-5.95,3.392-8.205c2.278-2.276,5.02-3.416,8.227-3.416C17.732,15.465,20.476,16.604,22.754,18.882z M15.526,25.181v-2.092
			c0-0.907,0.184-1.325,1.184-1.325h1.582l0.139-2.743c-0.535-0.116-1.278-0.163-2.208-0.163c-2.696,0-4.089,1.581-4.089,3.649
			v2.649H10.18v2.904h1.953v7.254h3.391v-7.254h2.719l0.187-2.88L15.526,25.181L15.526,25.181z"/>
	</g>
</g>
<g id="Capa_1_1_">
	<g>
		<path fill="#FFFFFF" d="M41.219,15.465c3.209,0,5.952,1.138,8.205,3.416c2.279,2.255,3.416,4.996,3.416,8.204
			s-1.137,5.951-3.416,8.229c-2.253,2.252-4.997,3.394-8.205,3.394c-3.204,0-5.948-1.142-8.227-3.394
			c-2.255-2.278-3.393-5.021-3.393-8.229c0-3.207,1.138-5.95,3.393-8.204C35.271,16.604,38.011,15.465,41.219,15.465z
			 M48.286,24.529c0.605-0.418,1.163-0.977,1.649-1.696c-0.651,0.257-1.279,0.441-1.905,0.511c0.697-0.394,1.163-1,1.418-1.836
			c-0.674,0.394-1.347,0.651-2.068,0.812c-0.65-0.697-1.438-1.046-2.396-1.046c-0.904,0-1.696,0.326-2.324,0.978
			c-0.627,0.626-0.951,1.416-0.951,2.324c0,0.278,0.022,0.536,0.069,0.767c-2.768-0.14-5.043-1.302-6.835-3.486
			c-0.277,0.535-0.417,1.093-0.417,1.675c0,1.185,0.488,2.115,1.439,2.742c-0.486,0-0.976-0.14-1.464-0.394v0.022
			c0,1.581,1.115,2.952,2.626,3.256c-0.23,0.068-0.512,0.115-0.859,0.115c-0.162,0-0.372-0.022-0.628-0.067
			c0.396,1.321,1.649,2.181,3.067,2.252c-1.276,1.003-2.625,1.485-4.09,1.485c-0.187,0-0.442-0.021-0.767-0.047
			c1.487,0.979,3.16,1.47,5.044,1.47c2.904,0,5.485-1.233,6.996-3.068c1.511-1.838,2.394-4.116,2.394-6.321L48.286,24.529
			L48.286,24.529z"/>
	</g>
</g>
<g>
	<path fill="#FFFFFF" d="M144.604,38.221c0.578-0.906,0.977-1.721,1.184-2.463l0.791-3.209c0.441,0.77,1.652,1.441,2.855,1.441
		c1.838,0,3.348-0.742,4.51-2.256c1.187-1.51,1.768-3.395,1.768-5.695c0-1.789-0.695-3.347-2.091-4.672
		c-1.371-1.325-3.138-1.999-5.251-1.999c-2.674,0-4.928,0.976-6.254,2.395c-1.323,1.417-2.069,3.184-2.069,4.857
		c0,2.137,0.813,3.858,2.373,4.438c0.302,0.117,0.511,0.023,0.579-0.279l0.258-0.928c0.045-0.209-0.023-0.441-0.188-0.652
		c-0.512-0.627-0.766-1.371-0.766-2.277c0-1.511,0.533-2.836,1.579-3.928c1.068-1.092,2.464-1.65,4.16-1.65
		c3.044,0,4.812,1.813,4.812,4.486c0,1.695-0.349,3.162-1.047,4.369c-0.676,1.186-1.557,1.791-2.648,1.791
		c-0.604,0-1.094-0.211-1.487-0.65c-0.374-0.443-0.487-0.979-0.325-1.582c0.071-0.371,0.211-0.859,0.396-1.439
		c0.368-1.186,0.628-2.093,0.628-2.673c0-1.023-0.561-1.767-1.561-1.767c-1.275,0-2.252,1.279-2.252,3.021
		c0,0.651,0.188,1.323,0.276,1.604l0.119,0.23c-0.858,3.58-1.371,5.693-1.511,6.346c-0.211,0.768-0.258,1.65-0.187,2.65
		c-2.069-0.906-3.765-2.326-5.045-4.229c-1.278-1.93-1.929-4.068-1.929-6.416c0-3.208,1.14-5.95,3.395-8.205
		c2.277-2.277,5.019-3.416,8.228-3.416c3.204,0,5.95,1.138,8.202,3.416c2.277,2.255,3.418,4.998,3.418,8.205
		c0,3.207-1.141,5.951-3.418,8.228c-2.252,2.254-4.998,3.395-8.202,3.395C146.764,38.709,145.646,38.545,144.604,38.221z"/>
</g>
<g>
	<path fill="#FFFFFF" d="M129.436,18.882c2.277,2.278,3.417,5.021,3.417,8.205c0,3.206-1.14,5.949-3.417,8.229
		c-2.252,2.252-4.998,3.393-8.202,3.393c-3.209,0-5.949-1.139-8.229-3.393c-2.254-2.279-3.395-5.021-3.395-8.229
		c0-3.208,1.141-5.95,3.395-8.206c2.279-2.278,5.021-3.416,8.229-3.416C124.415,15.465,127.159,16.604,129.436,18.882z
		 M121.233,28.109l7.252-5.439c0-0.488-0.421-0.906-0.91-0.906h-12.688c-0.485,0-0.929,0.418-0.929,0.906L121.233,28.109z
		 M128.485,24.552l-7.252,5.438l-7.275-5.438v6.951c0,0.487,0.443,0.905,0.93,0.905h12.688c0.489,0,0.91-0.418,0.91-0.905V24.552
		L128.485,24.552z"/>
</g>
<g>
	<path fill="#FFFFFF" d="M71.515,27.575c0,1.925-1.61,3.483-3.595,3.483s-3.594-1.562-3.594-3.483c0-0.345,0.052-0.688,0.148-0.995
		h-1.086v4.891c0,0.254,0.231,0.479,0.484,0.479h8.052c0.253,0,0.468-0.228,0.468-0.479V26.58h-1.026
		C71.463,26.887,71.515,27.231,71.515,27.575z"/>
	<path fill="#FFFFFF" d="M71.859,22.999h-1.308c-0.286,0-0.511,0.217-0.511,0.504v1.246c0,0.286,0.225,0.501,0.511,0.501h1.308
		c0.286,0,0.534-0.216,0.534-0.501v-1.246C72.392,23.216,72.145,22.999,71.859,22.999z"/>
	<ellipse fill="#FFFFFF" cx="67.92" cy="27.453" rx="2.323" ry="2.25"/>
	<path fill="#FFFFFF" d="M67.891,15.881c-6.417,0-11.62,5.203-11.62,11.62s5.203,11.62,11.62,11.62s11.619-5.203,11.619-11.62
		C79.51,21.083,74.308,15.881,67.891,15.881z M73.672,31.775c0,0.816-0.649,1.506-1.465,1.506h-8.595
		c-0.817,0-1.502-0.688-1.502-1.506v-8.593c0-0.817,0.685-1.461,1.502-1.461h8.595c0.816,0,1.465,0.644,1.465,1.461V31.775z"/>
</g>
<g>
	<path fill="#FFFFFF" d="M94.562,16.009c3.169,0,5.883,1.126,8.111,3.378c2.252,2.229,3.378,4.942,3.378,8.112
		c0,3.171-1.126,5.884-3.378,8.136c-2.229,2.229-4.942,3.355-8.111,3.355c-3.172,0-5.885-1.126-8.137-3.355
		c-2.229-2.252-3.355-4.965-3.355-8.136c0-3.17,1.126-5.883,3.355-8.112C88.678,17.135,91.391,16.009,94.562,16.009z M94.562,32.763
		c3.583,0,5.676-0.23,6.272-0.668c0.599-0.435,0.896-1.977,0.896-4.596s-0.297-4.158-0.896-4.596
		c-0.597-0.436-2.689-0.666-6.272-0.666c-3.586,0-5.679,0.23-6.297,0.666c-0.599,0.438-0.897,1.977-0.897,4.596
		s0.299,4.162,0.919,4.596C88.884,32.532,90.977,32.763,94.562,32.763z M92.653,30.373v-5.747l4.781,2.873L92.653,30.373z"/>
</g>
</svg>
