<?xml version="1.0" encoding="utf-8"?>
<!-- Generator: Adobe Illustrator 16.0.0, SVG Export Plug-In . SVG Version: 6.00 Build 0)  -->
<!DOCTYPE svg PUBLIC "-//W3C//DTD SVG 1.1//EN" "http://www.w3.org/Graphics/SVG/1.1/DTD/svg11.dtd">
<svg version="1.1" xmlns="http://www.w3.org/2000/svg" xmlns:xlink="http://www.w3.org/1999/xlink" x="0px" y="0px" width="25px"
	 height="25px" viewBox="0 0 25 25" enable-background="new 0 0 25 25" xml:space="preserve">
<g id="Capa_1" display="none">
	<path display="inline" fill="#FFFFFF" d="M19.05,17H7.792L4.875,6H2V4h5.125l0.583,2c0,0,13.611,0,14.096,0
		s0.972,0.399,0.972,0.779C22.776,7.135,19.05,17,19.05,17z M10.042,14h6.908l1.823-5H8.583L10.042,14z"/>
	<circle display="inline" fill="#FFFFFF" cx="10.333" cy="19.834" r="2.167"/>
	<circle display="inline" fill="#FFFFFF" cx="17.333" cy="19.834" r="2.167"/>
</g>
<g id="Capa_2">
	<path fill="#FFFFFF" d="M19.142,16.769l-2.715-2.295c0.692-1.106,1.1-2.409,1.1-3.809c0-3.975-3.233-7.208-7.208-7.208
		S3.11,6.69,3.11,10.665s3.234,7.208,7.208,7.208c1.49,0,2.875-0.454,4.025-1.231l2.862,2.418c0.552,0.467,1.378,0.397,1.845-0.155
		l0.246-0.291C19.764,18.061,19.694,17.234,19.142,16.769z M5.11,10.665c0-2.872,2.336-5.208,5.208-5.208s5.208,2.336,5.208,5.208
		c0,1.149-0.386,2.203-1.019,3.064c-0.208,0.075-0.405,0.185-0.559,0.366l-0.246,0.291c-0.096,0.113-0.153,0.242-0.205,0.373
		c-0.882,0.687-1.977,1.113-3.18,1.113C7.446,15.873,5.11,13.537,5.11,10.665z"/>
</g>
</svg>
