<?xml version="1.0" encoding="UTF-8" standalone="no"?>
<svg width="280px" height="119px" viewBox="0 0 280 119" version="1.1" xmlns="http://www.w3.org/2000/svg" xmlns:xlink="http://www.w3.org/1999/xlink" xmlns:sketch="http://www.bohemiancoding.com/sketch/ns">
    <!-- Generator: Sketch 3.3.3 (12072) - http://www.bohemiancoding.com/sketch -->
    <title>LOGO-WEB</title>
    <desc>Created with Sketch.</desc>
    <defs></defs>
    <g id="Page-1" stroke="none" stroke-width="1" fill="none" fill-rule="evenodd" sketch:type="MSPage">
        <g id="LOGO-WEB" sketch:type="MSLayerGroup">
            <g id="Group" sketch:type="MSShapeGroup">
                <path d="M138.983359,50.0695915 C138.856278,49.4341906 138.475038,49.01059 137.881997,48.7140696 C137.627837,48.5869894 137.373676,48.5446293 137.077156,48.5446293 C135.636914,48.5446293 134.408472,50.2390318 133.942511,50.8744327 C133.900151,50.9591528 133.815431,51.0015129 133.815431,51.0438729 C132.248109,52.9500756 130.765507,53.9667171 129.494705,53.9667171 C127.757943,53.9667171 126.19062,52.0605144 126.19062,50.5355522 C126.19062,46.172466 127.376702,41.8093797 128.266263,38.6323752 C128.816944,36.6838124 129.240545,35.1588502 129.240545,34.1845688 C129.240545,32.1512859 128.520424,30.9652042 126.868381,30.3721634 C126.360061,30.2027231 125.85174,30.0332829 125.131619,29.9909228 L125.046899,29.9909228 C123.521936,29.9909228 121.827534,32.4054463 120.472012,36.387292 C119.582451,38.9712557 118.94705,41.9364599 118.608169,45.0287443 L118.565809,45.1134644 C118.269289,45.6641452 117.930408,46.214826 117.591528,46.7231467 C115.346445,50.2813918 111.7882,54.9409985 107.340393,56.720121 L106.408472,57.1013616 L107.128593,56.4236006 C110.729198,52.9500756 112.550681,47.570348 112.550681,40.4114977 C112.550681,37.107413 111.491679,34.311649 109.500756,32.4054463 C107.721634,30.6686838 105.26475,29.6944024 102.596067,29.6944024 C99.7579425,29.6944024 97.1739788,30.6686838 94.6747352,32.7019667 L94.3782148,32.9561271 L94.3782148,32.5748865 C94.2511346,30.3721634 93.2344932,29.8214826 91.8789713,29.3131619 L91.709531,29.2708018 C91.2435703,29.1013616 90.7352496,28.8895613 90.0998487,28.8895613 C86.075643,28.8895613 84.720121,38.2511346 83.4916793,49.5612708 L83.4916793,49.6459909 C80.9924357,54.5173979 78.9167927,58.2874433 76.4599092,58.2874433 C74.214826,58.2874433 73.0287443,54.6868381 73.0287443,53.1618759 C73.0287443,49.730711 74.2995461,45.2829047 75.2738275,41.6822995 C75.9515885,39.3101362 76.4599092,37.4039334 76.4599092,36.4720121 C76.4599092,34.1845688 75.4432678,33.6762481 74.0030257,33.1679274 L73.8335855,33.1255673 C73.3676248,32.9561271 72.9016641,32.7866868 72.2662632,32.7866868 C71.8850227,32.7866868 71.376702,33.1255673 70.8260212,33.7186082 L70.6142209,33.9304085 L70.4871407,33.6762481 C70.0635401,32.8290469 69.5975794,32.0665658 69.0468986,31.4311649 C67.3948563,29.5249622 65.1921331,28.5930408 62.5234493,28.5930408 C52.6959153,28.5930408 49.01059,36.9379728 47.6974281,41.9364599 L47.6550681,42.02118 L47.570348,42.0635401 C46.8502269,42.4024206 46.1301059,42.7836611 45.5794251,43.1225416 C45.3676248,43.2496218 45.1981846,43.3343419 45.0287443,43.4614221 C43.4614221,44.3509834 41.8517398,45.1558245 40.0726172,46.0030257 L39.7760968,46.1301059 L39.8184569,45.7912254 C41.97882,22.5355522 44.4357035,17.7065053 47.5279879,11.6490166 C47.9092284,10.8441755 48.290469,10.0393343 48.7140696,9.27685325 C49.5189107,7.70953101 50.3237519,6.2269289 50.408472,4.99848714 C50.5355522,3.60060514 50.1543116,2.28744327 49.3918306,1.44024206 C48.8411498,0.84720121 48.1633888,0.508320726 47.4432678,0.508320726 C44.9016641,0.508320726 42.4871407,2.79576399 40.2844175,7.32829047 L40.2420575,7.37065053 L40.1996974,7.41301059 C39.0983359,8.00605144 37.9546142,8.55673222 36.5990923,9.19213313 C29.3131619,12.7503782 21.0953101,16.774584 22.7473525,24.3146747 C23.1709531,26.1785174 24.0605144,27.7034796 25.2889561,28.4659607 C26.1361573,29.0166415 27.1527988,29.1860817 28.2118003,28.9319213 C29.6096823,28.5930408 30.2874433,27.4493192 29.9485628,25.9667171 C29.8638427,25.5431165 29.6944024,25.2465961 29.5249622,24.8653555 L29.6944024,24.7382753 L29.5249622,24.8229955 C29.4826021,24.7382753 29.4402421,24.6535552 29.397882,24.5688351 C28.7624811,23.2980333 28.7624811,21.730711 29.3131619,20.5022693 C29.6944024,19.612708 30.4145234,18.8078669 31.473525,17.9606657 C32.6172466,17.0711044 33.8880484,16.3933434 34.8623298,15.8850227 C35.4977307,15.5885023 36.1754917,15.2496218 37.0226929,14.9107413 L37.4039334,14.7413011 L37.2768533,15.1649017 C37.065053,15.8003026 36.8956127,16.3933434 36.6838124,16.9440242 C35.03177,22.1119516 32.4054463,43.0378215 31.9818457,46.934947 L31.6853253,49.4765507 L31.5582451,49.5189107 C30.6686838,49.8577912 29.7367625,50.1966717 28.8472012,50.5355522 C28.1270802,50.7897126 27.3645991,51.086233 26.6444781,51.3403933 C24.8229955,52.0181543 22.9167927,52.6959153 21.0529501,53.4160363 C19.1043873,54.1785174 16.5204236,55.2375189 13.97882,56.4659607 C11.6066566,57.6520424 9.6580938,58.8381241 8.00605144,60.1512859 C6.18456884,61.591528 4.65960666,63.2012103 3.51588502,64.8956127 C2.28744327,66.7594554 1.397882,68.8774584 0.889561271,71.1649017 C0.550680787,72.774584 0.381240545,74.5113464 0.381240545,76.332829 C0.381240545,86.075643 6.60816944,92.387292 16.2239032,92.387292 C23.4674735,92.387292 28.8472012,88.7443268 32.6596067,81.2889561 C35.8366112,75.1043873 37.9546142,66.1240545 39.0983359,53.881997 L39.0983359,53.7549168 L39.225416,53.7125567 C40.7927383,53.1618759 42.8260212,52.3993949 44.8593041,51.4251135 C45.4099849,51.1709531 46.0030257,50.8320726 46.6807867,50.4508321 L46.934947,50.2813918 L46.9773071,50.5779123 C47.2314675,53.2465961 47.8668684,55.5340393 48.8835098,57.3131619 C50.5355522,60.2783661 53.0771558,61.8033283 56.4659607,61.8033283 C60.2360061,61.8033283 63.7518911,59.8124054 66.5900151,56.0847201 L66.8018154,55.7881997 L66.9288956,56.1270802 C67.8184569,58.9652042 70.02118,63.7518911 74.8502269,63.7518911 C77.4341906,63.7518911 79.7639939,62.7352496 81.924357,60.6172466 L82.3055976,60.2360061 L82.2208775,60.7866868 C81.881997,63.4553707 81.5854766,65.7428139 81.2465961,67.8184569 C80.8653555,70.1482602 80.3993949,72.3086233 80.0181543,74.214826 C79.3827534,77.1376702 78.8744327,79.6792738 78.8744327,81.6278366 C78.8744327,83.9576399 79.9757943,85.5673222 80.9500756,85.5673222 L81.5007564,85.5673222 L82.1361573,85.5673222 C82.8986384,85.5673222 83.7458396,85.5249622 84.4236006,85.2284418 C87.6006051,83.6611195 89.5491679,70.2329803 90.9046899,58.6686838 L90.9470499,58.2874433 L91.2435703,58.5416036 C93.9546142,60.913767 98.0635401,62.2269289 102.807867,62.2269289 C109.161876,62.2269289 114.499244,59.473525 118.73525,54.0514372 L118.94705,53.7549168 L119.07413,54.0937973 C119.455371,55.2375189 119.963691,56.2541604 120.556732,57.1437216 C122.208775,59.515885 124.665658,60.7443268 127.588502,60.7443268 C130.934947,60.7443268 134.408472,58.6686838 137.416036,54.8562784 C138.051437,54.0514372 139.364599,51.7216339 138.983359,50.0695915 L138.983359,50.0695915 L138.983359,50.0695915 Z M30.7534039,56.9319213 C30.2874433,60.4478064 29.8214826,63.3706505 29.3131619,66.1240545 C28.3812405,71.0378215 27.279879,76.1633888 24.6959153,80.526475 C23.1709531,83.0680787 20.5022693,86.1603631 16.2662632,86.1603631 C14.1482602,86.1603631 12.1996974,85.3555219 10.8018154,83.9576399 C9.02269289,82.1785174 8.09077156,79.4674735 8.09077156,76.1210287 C8.09077156,73.9606657 8.59909228,71.8003026 9.48865356,69.97882 C10.3358548,68.2844175 11.5642965,66.6747352 13.2163389,65.2344932 C14.698941,63.9213313 16.4780635,62.7352496 18.6384266,61.5491679 C20.5022693,60.5748865 22.5779123,59.6429652 25.1618759,58.6686838 C27.1951589,57.9062027 29.1860817,57.2284418 30.5416036,56.7624811 L30.8381241,56.677761 L30.7534039,56.9319213 L30.7534039,56.9319213 Z M68.1149773,38.3782148 C66.7594554,41.7246596 65.9969743,45.6217852 65.9546142,49.3071104 L65.9546142,49.3494705 L65.9122542,49.3918306 C64.3025719,52.3146747 61.7186082,55.8305598 58.3298033,55.8305598 C55.4069592,55.8305598 54.602118,51.4674735 54.602118,48.8835098 C54.602118,43.1225416 57.5249622,34.6505295 63.8366112,34.6505295 C65.1497731,34.6505295 67.0983359,35.8789713 68.1573374,38.2087746 L68.1996974,38.2934947 L68.1149773,38.3782148 L68.1149773,38.3782148 Z M98.1482602,55.4069592 L98.02118,55.4493192 L97.9364599,55.3645991 C96.8774584,54.3903177 96.0302572,53.1618759 95.2677761,52.0605144 C94.3358548,50.7049924 93.4462935,49.4341906 92.2602118,48.7987897 L92.1331316,48.7140696 L92.1754917,48.5869894 C92.429652,47.0196672 92.6838124,45.5370651 92.9379728,44.0544629 C93.065053,43.3343419 93.1921331,42.6142209 93.3192133,41.9364599 L93.3615734,41.8517398 C96.0302572,37.9969743 98.7836611,36.2178517 102.003026,36.2178517 C103.358548,36.2178517 105.391831,37.827534 105.391831,42.2753404 C105.391831,44.0121029 105.05295,52.8229955 98.1482602,55.4069592 L98.1482602,55.4069592 L98.1482602,55.4069592 Z" id="Shape" fill="#1D428A"></path>
                <path d="M277.416036,49.6459909 C276.695915,49.6459909 276.060514,50.6626324 275.255673,51.9334342 C273.773071,54.2208775 271.782148,57.3555219 267.927383,57.3555219 C263.691377,57.3555219 262.420575,53.3313162 262.081694,50.9167927 L262.039334,50.6626324 L262.293495,50.6626324 L262.462935,50.6626324 C269.071104,50.6626324 278.898638,46.0877458 278.898638,36.2178517 C278.898638,32.3630862 276.229955,28.2965204 271.316188,28.2965204 C257.252648,28.2965204 254.202723,42.1482602 254.202723,47.4856278 C254.202723,49.0953101 254.372163,50.6626324 254.668684,52.1452345 L254.668684,52.2299546 L254.626324,52.2723147 C252.381241,56.4236006 249.924357,58.5416036 247.425113,58.5416036 C246.196672,58.5416036 244.71407,57.8638427 244.71407,54.6868381 C244.71407,52.5688351 245.34947,49.3918306 245.984871,46.2571861 C246.620272,43.1225416 247.255673,39.8608169 247.255673,37.6580938 C247.255673,31.7276853 243.951589,29.6096823 241.155825,29.6096823 C237.301059,29.6096823 233.742814,31.3888048 230.269289,35.03177 L229.845688,35.4553707 L229.930408,34.8623298 C230.142209,33.4644478 230.226929,32.2783661 230.226929,31.2193646 C230.226929,30.4145234 229.210287,29.4402421 228.574887,29.1860817 C227.981846,28.9319213 227.473525,28.9319213 226.965204,28.8895613 L226.795764,28.8895613 L226.626324,28.8895613 C225.228442,28.8895613 223.279879,29.6944024 222.347958,31.8971256 C221.839637,33.1679274 220.738275,39.903177 219.679274,46.4266263 C219.509834,47.4856278 219.340393,48.5446293 219.170953,49.5189107 L219.170953,49.5612708 C217.30711,53.0347958 215.062027,56.5930408 212.732224,56.5930408 C210.360061,56.5930408 209.597579,52.8653555 209.597579,51.5521936 C209.597579,48.1210287 210.741301,43.6308623 211.673222,39.9878971 C212.266263,37.6157337 212.774584,35.709531 212.774584,34.7352496 C212.774584,32.4478064 211.757943,31.9394856 210.3177,31.4311649 L210.14826,31.3888048 C209.6823,31.2193646 209.216339,31.0499244 208.580938,31.0499244 C207.945537,31.0499244 207.140696,31.6853253 206.293495,32.7866868 L206.124054,32.9984871 L205.954614,32.7443268 C205.658094,32.2783661 205.361573,31.8547655 205.065053,31.473525 C203.413011,29.5673222 201.210287,28.6354009 198.541604,28.6354009 C188.88351,28.6354009 185.155825,36.7685325 183.800303,41.6399395 L183.757943,41.7246596 L183.673222,41.7670197 C182.868381,42.1059002 182.06354,42.5718608 181.428139,42.9531014 C181.216339,43.0801815 181.046899,43.1649017 180.877458,43.2919818 C179.310136,44.1815431 177.700454,44.9863843 175.921331,45.8335855 L175.624811,45.9606657 L175.667171,45.6217852 C177.827534,22.366112 180.284418,17.5370651 183.376702,11.4795764 C183.757943,10.6747352 184.139183,9.91225416 184.520424,9.14977307 C185.367625,7.54009077 186.130106,6.05748865 186.214826,4.8290469 C186.341906,3.4311649 185.960666,2.11800303 185.198185,1.27080182 C184.647504,0.677760968 183.969743,0.338880484 183.249622,0.338880484 C180.750378,0.338880484 178.335855,2.58396369 176.133132,7.03177005 L176.090772,7.07413011 L176.048411,7.11649017 C174.86233,7.75189107 173.591528,8.34493192 172.278366,9.02269289 C164.992436,12.580938 156.774584,16.6051437 158.426626,24.1452345 C158.850227,26.0090772 159.739788,27.5340393 160.96823,28.2965204 C161.815431,28.8472012 162.832073,29.0166415 163.891074,28.7624811 C165.288956,28.4236006 165.966717,27.279879 165.627837,25.7972769 C165.543116,25.3736762 165.373676,25.0771558 165.204236,24.6959153 L165.204236,24.6535552 C165.161876,24.5688351 165.119516,24.484115 165.077156,24.3993949 C164.441755,23.128593 164.441755,21.5612708 164.992436,20.332829 C165.373676,19.4432678 166.093797,18.6384266 167.152799,17.7912254 C168.29652,16.9016641 169.567322,16.2239032 170.541604,15.7155825 C171.219365,15.376702 171.939486,15.0378215 172.871407,14.6565809 L173.252648,14.4871407 L173.125567,14.9107413 C172.913767,15.5885023 172.701967,16.2239032 172.532526,16.774584 C170.880484,21.9001513 168.25416,42.8260212 167.83056,46.7655068 L167.534039,49.3071104 L167.406959,49.3494705 C166.517398,49.688351 165.585477,50.0272315 164.695915,50.366112 C163.975794,50.6202723 163.213313,50.9167927 162.493192,51.1709531 C160.67171,51.8487141 158.765507,52.526475 156.901664,53.2889561 C154.953101,54.0514372 152.369138,55.1104387 149.827534,56.3388805 C147.455371,57.5249622 145.506808,58.7110439 143.854766,60.0242057 C142.033283,61.4644478 140.508321,63.0741301 139.364599,64.7685325 C138.136157,66.6323752 137.246596,68.7503782 136.738275,71.0378215 C136.399395,72.6475038 136.229955,74.3842663 136.229955,76.2057489 C136.229955,85.9485628 142.456884,92.2602118 152.072617,92.2602118 C159.316188,92.2602118 164.695915,88.6172466 168.508321,81.1618759 C171.685325,74.9773071 173.803328,65.9969743 174.94705,53.7549168 L174.94705,53.6278366 L175.07413,53.5854766 C176.641452,53.0347958 178.674735,52.2723147 180.708018,51.2980333 C181.301059,51.0015129 181.93646,50.6626324 182.614221,50.2390318 L182.868381,50.0695915 L182.910741,50.366112 C183.164902,53.1618759 183.800303,55.5340393 184.859304,57.397882 C186.511346,60.3630862 189.05295,61.8880484 192.441755,61.8880484 C197.355522,61.8880484 200.786687,58.6263238 202.77761,55.8729198 L202.98941,55.5763994 L203.11649,55.9152799 C204.514372,59.9394856 207.225416,61.9727685 211.080182,62.0151286 L211.164902,62.0151286 L211.249622,62.0151286 C213.537065,61.9727685 215.443268,60.7866868 217.30711,58.3298033 L217.773071,57.7367625 L217.645991,58.4992436 C217.561271,59.1346445 217.518911,59.5582451 217.518911,59.8124054 C217.518911,60.8290469 218.704992,62.311649 221.077156,62.1845688 C223.364599,62.0998487 225.482602,57.2284418 227.007564,48.5446293 L227.007564,48.4599092 C227.134644,47.7821483 227.261725,47.0620272 227.473525,46.172466 L227.473525,46.1301059 C230.142209,41.3857791 233.488654,36.5143722 238.02118,36.5143722 C239.715582,36.5143722 239.927383,38.1664145 239.927383,39.7337368 C239.927383,41.0892587 239.334342,43.8003026 238.741301,46.6384266 C238.02118,49.8577912 237.301059,53.204236 237.301059,55.1527988 C237.301059,57.6520424 238.06354,59.9394856 239.419062,61.591528 C240.901664,63.3706505 243.019667,64.3449319 245.561271,64.3449319 C250.305598,64.3449319 254.414523,60.8290469 256.659607,57.5249622 L256.829047,57.2708018 L256.998487,57.5249622 C259.20121,60.871407 262.547655,62.7352496 266.402421,62.7352496 C277.331316,62.7352496 279.70348,54.0514372 279.70348,51.8910741 C279.576399,51.2980333 278.729198,49.6459909 277.416036,49.6459909 L277.416036,49.6459909 L277.416036,49.6459909 Z M166.432678,56.9319213 C165.966717,60.4478064 165.500756,63.3706505 164.992436,66.1240545 C164.060514,71.0378215 162.959153,76.1633888 160.375189,80.526475 C158.850227,83.0680787 156.181543,86.1603631 151.945537,86.1603631 C149.827534,86.1603631 147.878971,85.3555219 146.481089,83.9576399 C144.701967,82.1785174 143.770045,79.4674735 143.770045,76.1210287 C143.770045,73.9183056 144.278366,71.8003026 145.167927,69.97882 C146.015129,68.2844175 147.24357,66.6747352 148.895613,65.2344932 C150.378215,63.9213313 152.157337,62.7352496 154.3177,61.5491679 C156.181543,60.5748865 158.257186,59.6429652 160.84115,58.6686838 C162.874433,57.9062027 164.865356,57.2284418 166.220877,56.7624811 L166.517398,56.677761 L166.432678,56.9319213 L166.432678,56.9319213 Z M203.624811,37.9546142 C202.523449,41.2586989 201.930408,45.1558245 201.930408,49.2223903 L201.930408,49.3918306 L201.888048,49.4341906 C200.278366,52.484115 197.609682,56.1270802 194.136157,56.1270802 C191.213313,56.1270802 190.408472,51.7639939 190.408472,49.1800303 C190.408472,43.419062 193.331316,34.9470499 199.642965,34.9470499 C200.998487,34.9470499 202.608169,36.1331316 203.624811,37.827534 L203.667171,37.9122542 L203.624811,37.9546142 L203.624811,37.9546142 Z M261.954614,46.0877458 C262.335855,41.6822995 263.818457,38.9712557 265.004539,37.4462935 C266.571861,35.4130106 268.266263,34.6928896 269.198185,34.6928896 C270.511346,34.6928896 271.951589,35.8789713 271.951589,38.0393343 C271.951589,40.3691377 270.850227,42.4871407 268.816944,44.0121029 C266.995461,45.4099849 264.580938,46.214826 262.166415,46.2571861 L261.954614,46.2571861 L261.954614,46.0877458 L261.954614,46.0877458 Z" id="Shape" fill="#1D428A"></path>
                <path d="M130.680787,20.0786687 C129.748865,19.2314675 129.367625,19.1891074 128.478064,19.0620272 C128.266263,19.0196672 127.969743,19.0196672 127.588502,19.0196672 C126.741301,19.0196672 126.02118,19.2314675 125.512859,19.612708 C124.411498,20.4599092 123.860817,21.5189107 123.860817,22.9167927 C123.860817,23.6792738 123.860817,25.2889561 125.385779,25.8396369 C126.360061,26.2208775 128.054463,26.5173979 128.435703,26.5173979 C129.875946,26.5173979 131.231467,25.204236 131.443268,23.6369138 C131.655068,22.4931921 131.782148,21.0953101 130.680787,20.0786687 L130.680787,20.0786687 L130.680787,20.0786687 Z" id="Shape" fill="#1D428A"></path>
                <path d="M29.6520424,118.099849 C30.4145234,118.099849 31.0499244,117.845688 31.5582451,117.337368 C32.0665658,116.829047 32.4054463,115.981846 32.4054463,114.922844 L32.4054463,108.653555 L31.7276853,108.653555 L31.7276853,114.965204 C31.7276853,116.574887 30.8381241,117.464448 29.6944024,117.464448 C28.5930408,117.464448 28,116.956127 27.4069592,115.981846 L26.8562784,116.320726 C27.4069592,117.379728 28.2541604,118.099849 29.6520424,118.099849 L29.6520424,118.099849 L29.6520424,118.099849 Z M40.6656581,118.142209 C42.9107413,118.142209 44.4780635,116.701967 44.4780635,114.075643 L44.4780635,108.738275 L43.8003026,108.738275 L43.8003026,114.160363 C43.8003026,116.405446 42.6142209,117.549168 40.7080182,117.549168 C38.7594554,117.549168 37.5733737,116.278366 37.5733737,114.118003 L37.5733737,108.738275 L36.8532526,108.738275 L36.8532526,114.160363 C36.8532526,116.701967 38.4205749,118.142209 40.6656581,118.142209 L40.6656581,118.142209 L40.6656581,118.142209 Z M53.3313162,118.142209 C54.8562784,118.142209 56.1270802,117.506808 56.9742814,116.744327 L56.9742814,113.143722 L53.204236,113.143722 L53.204236,113.779123 L56.2965204,113.779123 L56.2965204,116.447806 C55.6187595,116.998487 54.5173979,117.506808 53.3313162,117.506808 C50.8320726,117.506808 49.3494705,115.727685 49.3494705,113.313162 L49.3494705,113.270802 C49.3494705,111.025719 50.9167927,109.119516 53.204236,109.119516 C54.602118,109.119516 55.4493192,109.585477 56.1694402,110.220877 L56.6354009,109.712557 C55.7034796,108.950076 54.7715582,108.484115 53.2465961,108.484115 C50.4931921,108.484115 48.6717095,110.771558 48.6717095,113.270802 L48.6717095,113.313162 C48.6717095,115.981846 50.408472,118.142209 53.3313162,118.142209 L53.3313162,118.142209 L53.3313162,118.142209 Z M65.107413,118.142209 C67.3524962,118.142209 68.9198185,116.701967 68.9198185,114.075643 L68.9198185,108.738275 L68.2420575,108.738275 L68.2420575,114.160363 C68.2420575,116.405446 67.0559758,117.549168 65.1497731,117.549168 C63.2012103,117.549168 62.0151286,116.278366 62.0151286,114.118003 L62.0151286,108.738275 L61.3373676,108.738275 L61.3373676,114.160363 C61.2950076,116.701967 62.9046899,118.142209 65.107413,118.142209 L65.107413,118.142209 L65.107413,118.142209 Z M73.5370651,117.972769 L80.2299546,117.972769 L80.2299546,117.337368 L74.2571861,117.337368 L74.2571861,113.609682 L79.5945537,113.609682 L79.5945537,112.974281 L74.2571861,112.974281 L74.2571861,109.331316 L80.1875946,109.331316 L80.1875946,108.695915 L73.5794251,108.695915 L73.5794251,117.972769 L73.5370651,117.972769 L73.5370651,117.972769 Z M87.0075643,117.972769 L87.6853253,117.972769 L87.6853253,109.331316 L90.9046899,109.331316 L90.9046899,108.695915 L83.7458396,108.695915 L83.7458396,109.331316 L86.9652042,109.331316 L86.9652042,117.972769 L87.0075643,117.972769 L87.0075643,117.972769 Z M95.0136157,117.972769 L101.664145,117.972769 L101.664145,117.337368 L95.6913767,117.337368 L95.6913767,113.609682 L101.028744,113.609682 L101.028744,112.974281 L95.6913767,112.974281 L95.6913767,109.331316 L101.621785,109.331316 L101.621785,108.695915 L95.0136157,108.695915 L95.0136157,117.972769 L95.0136157,117.972769 L95.0136157,117.972769 Z M109.034796,118.099849 C110.813918,118.099849 112.12708,117.083207 112.12708,115.558245 L112.12708,115.515885 C112.12708,114.160363 111.237519,113.397882 109.077156,112.974281 C106.874433,112.508321 106.366112,111.91528 106.366112,110.940998 L106.366112,110.898638 C106.366112,109.924357 107.255673,109.161876 108.653555,109.161876 C109.670197,109.161876 110.559758,109.458396 111.406959,110.220877 L111.83056,109.670197 C110.898638,108.907716 110.009077,108.526475 108.653555,108.526475 C106.916793,108.526475 105.688351,109.585477 105.688351,110.983359 L105.688351,111.025719 C105.688351,112.423601 106.577912,113.186082 108.822995,113.652042 C110.940998,114.075643 111.449319,114.668684 111.449319,115.642965 L111.449319,115.685325 C111.449319,116.744327 110.475038,117.549168 109.119516,117.549168 C107.763994,117.549168 106.789713,117.125567 105.773071,116.151286 L105.30711,116.659607 C106.408472,117.633888 107.552194,118.099849 109.034796,118.099849 L109.034796,118.099849 L109.034796,118.099849 Z M122.335855,117.972769 L123.013616,117.972769 L123.013616,114.499244 L125.512859,114.499244 C127.461422,114.499244 129.155825,113.482602 129.155825,111.534039 L129.155825,111.491679 C129.155825,109.712557 127.757943,108.653555 125.72466,108.653555 L122.335855,108.653555 L122.335855,117.972769 L122.335855,117.972769 Z M123.013616,113.863843 L123.013616,109.331316 L125.639939,109.331316 C127.291982,109.331316 128.435703,110.093797 128.435703,111.576399 L128.435703,111.618759 C128.435703,113.016641 127.249622,113.906203 125.555219,113.906203 L123.013616,113.906203 L123.013616,113.863843 L123.013616,113.863843 Z M131.485628,117.972769 L132.205749,117.972769 L133.391831,115.388805 L138.856278,115.388805 L140.04236,117.972769 L140.804841,117.972769 L136.484115,108.611195 L135.806354,108.611195 L131.485628,117.972769 L131.485628,117.972769 Z M133.645991,114.753404 L136.102874,109.373676 L138.559758,114.753404 L133.645991,114.753404 L133.645991,114.753404 Z M144.744327,117.972769 L145.422088,117.972769 L145.422088,114.118003 L148.472012,114.118003 L151.437216,117.972769 L152.326778,117.972769 L149.276853,113.990923 C150.844175,113.779123 151.987897,112.889561 151.987897,111.322239 L151.987897,111.279879 C151.987897,110.602118 151.733737,110.009077 151.267776,109.543116 C150.717095,108.992436 149.785174,108.611195 148.641452,108.611195 L144.744327,108.611195 L144.744327,117.972769 L144.744327,117.972769 L144.744327,117.972769 Z M145.422088,113.524962 L145.422088,109.331316 L148.599092,109.331316 C150.293495,109.331316 151.267776,110.093797 151.267776,111.364599 L151.267776,111.406959 C151.267776,112.762481 150.124054,113.524962 148.556732,113.524962 L145.422088,113.524962 L145.422088,113.524962 L145.422088,113.524962 Z M155.503782,117.972769 L156.223903,117.972769 L157.409985,115.388805 L162.874433,115.388805 L164.060514,117.972769 L164.822995,117.972769 L160.502269,108.611195 L159.824508,108.611195 L155.503782,117.972769 L155.503782,117.972769 Z M157.706505,114.753404 L160.163389,109.373676 L162.620272,114.753404 L157.706505,114.753404 L157.706505,114.753404 Z M179.013616,118.142209 C180.538578,118.142209 181.80938,117.506808 182.656581,116.744327 L182.656581,113.143722 L178.886536,113.143722 L178.886536,113.779123 L181.97882,113.779123 L181.97882,116.447806 C181.301059,116.998487 180.199697,117.506808 179.013616,117.506808 C176.514372,117.506808 175.03177,115.727685 175.03177,113.313162 L175.03177,113.270802 C175.03177,111.025719 176.599092,109.119516 178.886536,109.119516 C180.284418,109.119516 181.131619,109.585477 181.85174,110.220877 L182.3177,109.712557 C181.385779,108.950076 180.453858,108.484115 178.928896,108.484115 C176.175492,108.484115 174.354009,110.771558 174.354009,113.270802 L174.354009,113.313162 C174.354009,115.981846 176.090772,118.142209 179.013616,118.142209 L179.013616,118.142209 L179.013616,118.142209 Z M187.146747,117.972769 L187.824508,117.972769 L187.824508,114.118003 L190.874433,114.118003 L193.839637,117.972769 L194.729198,117.972769 L191.679274,113.990923 C193.246596,113.779123 194.390318,112.889561 194.390318,111.322239 L194.390318,111.279879 C194.390318,110.602118 194.136157,110.009077 193.670197,109.543116 C193.119516,108.992436 192.187595,108.611195 191.043873,108.611195 L187.146747,108.611195 L187.146747,117.972769 L187.146747,117.972769 L187.146747,117.972769 Z M187.866868,113.524962 L187.866868,109.331316 L191.043873,109.331316 C192.738275,109.331316 193.712557,110.093797 193.712557,111.364599 L193.712557,111.406959 C193.712557,112.762481 192.568835,113.524962 191.001513,113.524962 L187.866868,113.524962 L187.866868,113.524962 L187.866868,113.524962 Z M197.948563,117.972769 L198.668684,117.972769 L199.854766,115.388805 L205.319213,115.388805 L206.505295,117.972769 L207.267776,117.972769 L202.94705,108.611195 L202.269289,108.611195 L197.948563,117.972769 L197.948563,117.972769 Z M200.151286,114.753404 L202.608169,109.373676 L205.065053,114.753404 L200.151286,114.753404 L200.151286,114.753404 Z M211.207262,117.972769 L211.885023,117.972769 L211.885023,109.712557 L218.408472,117.972769 L218.916793,117.972769 L218.916793,108.695915 L218.239032,108.695915 L218.239032,116.786687 L211.842663,108.695915 L211.207262,108.695915 L211.207262,117.972769 L211.207262,117.972769 Z M223.70348,117.972769 L226.795764,117.972769 C229.718608,117.972769 231.751891,115.939486 231.751891,113.313162 L231.751891,113.270802 C231.751891,110.644478 229.718608,108.653555 226.795764,108.653555 L223.70348,108.653555 L223.70348,117.972769 L223.70348,117.972769 Z M224.381241,117.337368 L224.381241,109.331316 L226.795764,109.331316 C229.379728,109.331316 231.03177,111.152799 231.03177,113.355522 L231.03177,113.397882 C231.03177,115.600605 229.379728,117.379728 226.795764,117.379728 L224.381241,117.379728 L224.381241,117.337368 L224.381241,117.337368 Z M236.072617,117.972769 L242.723147,117.972769 L242.723147,117.337368 L236.750378,117.337368 L236.750378,113.609682 L242.087746,113.609682 L242.087746,112.974281 L236.750378,112.974281 L236.750378,109.331316 L242.680787,109.331316 L242.680787,108.695915 L236.072617,108.695915 L236.072617,117.972769 L236.072617,117.972769 Z M250.093797,118.099849 C251.87292,118.099849 253.186082,117.083207 253.186082,115.558245 L253.186082,115.515885 C253.186082,114.160363 252.29652,113.397882 250.136157,112.974281 C247.933434,112.508321 247.425113,111.91528 247.425113,110.940998 L247.425113,110.898638 C247.425113,109.924357 248.314675,109.161876 249.712557,109.161876 C250.729198,109.161876 251.618759,109.458396 252.465961,110.220877 L252.889561,109.670197 C251.95764,108.907716 251.068079,108.526475 249.712557,108.526475 C247.975794,108.526475 246.747352,109.585477 246.747352,110.983359 L246.747352,111.025719 C246.747352,112.423601 247.636914,113.186082 249.881997,113.652042 C252,114.075643 252.508321,114.668684 252.508321,115.642965 L252.508321,115.685325 C252.508321,116.744327 251.534039,117.549168 250.178517,117.549168 C248.822995,117.549168 247.848714,117.125567 246.832073,116.151286 L246.366112,116.659607 C247.467474,117.633888 248.611195,118.099849 250.093797,118.099849 L250.093797,118.099849 L250.093797,118.099849 Z" id="Shape" fill="#20201E"></path>
            </g>
        </g>
    </g>
</svg>