<?xml version="1.0" encoding="UTF-8" standalone="no"?>
<svg width="131px" height="24px" viewBox="0 0 131 24" version="1.1" xmlns="http://www.w3.org/2000/svg" xmlns:xlink="http://www.w3.org/1999/xlink" xmlns:sketch="http://www.bohemiancoding.com/sketch/ns">
    <!-- Generator: Sketch 3.3.3 (12072) - http://www.bohemiancoding.com/sketch -->
    <title>Group</title>
    <desc>Created with Sketch.</desc>
    <defs></defs>
    <g id="Page-1" stroke="none" stroke-width="1" fill="none" fill-rule="evenodd" sketch:type="MSPage">
        <g id="Group" sketch:type="MSLayerGroup" fill="#FFFFFF">
            <g id="ic-youtube" transform="translate(80.000000, 0.000000)" sketch:type="MSShapeGroup">
                <g id="Page-1">
                    <g id="ic-youtube">
                        <g id="Page-1">
                            <g id="YOUTUBE">
                                <g id="Group">
                                    <path d="M17.9111111,0.0444444444 L5.97037037,0.0444444444 C2.6962963,0.0444444444 0.0148148148,2.72592593 0.0148148148,6 L0.0148148148,18 C0.0148148148,21.2740741 2.6962963,23.9555556 5.97037037,23.9555556 L17.9111111,23.9555556 C21.1851852,23.9555556 23.8666667,21.2740741 23.8666667,18 L23.8666667,6 C23.8666667,2.71111111 21.1851852,0.0444444444 17.9111111,0.0444444444 L17.9111111,0.0444444444 L17.9111111,0.0444444444 Z M21.6592593,8.02962963 L21.6592593,10.237037 L21.6592593,17.9851852 C21.6592593,20.0444444 19.9703704,21.7333333 17.9111111,21.7333333 L5.97037037,21.7333333 C3.91111111,21.7333333 2.22222222,20.0444444 2.22222222,17.9851852 L2.22222222,10.237037 L2.22222222,8.02962963 L2.22222222,5.97037037 C2.22222222,3.91111111 3.91111111,2.22222222 5.97037037,2.22222222 L17.9111111,2.22222222 C19.9703704,2.22222222 21.6592593,3.91111111 21.6592593,5.97037037 L21.6592593,8.02962963 L21.6592593,8.02962963 Z" id="Shape"></path>
                                    <path d="M8.35555556,5.79259259 C8.19259259,5.7037037 8,5.7037037 7.83703704,5.79259259 C7.67407407,5.88148148 7.57037037,6.05925926 7.57037037,6.23703704 L7.57037037,17.762963 C7.57037037,17.9555556 7.67407407,18.1185185 7.83703704,18.2074074 C7.91111111,18.2518519 8,18.2814815 8.08888889,18.2814815 C8.17777778,18.2814815 8.26666667,18.2518519 8.35555556,18.2074074 L18.2518519,12.4444444 C18.4148148,12.3555556 18.5037037,12.1777778 18.5037037,12 C18.5037037,11.8222222 18.4148148,11.6444444 18.2518519,11.5555556 L8.35555556,5.79259259 L8.35555556,5.79259259 Z" id="Shape"></path>
                                </g>
                            </g>
                        </g>
                    </g>
                </g>
            </g>
            <g id="ic-twitter" transform="translate(27.000000, 0.000000)" sketch:type="MSShapeGroup">
                <g id="Page-1">
                    <g id="ic-twitter">
                        <g id="Page-1">
                            <g id="TWITTER">
                                <g id="Group">
                                    <path d="M17.9407407,0.0444444444 L6,0.0444444444 C2.72592593,0.0444444444 0.0444444444,2.72592593 0.0444444444,6 L0.0444444444,18 C0.0444444444,21.2740741 2.72592593,23.9555556 6,23.9555556 L17.9407407,23.9555556 C21.2148148,23.9555556 23.8962963,21.2740741 23.8962963,18 L23.8962963,6 C23.8814815,2.71111111 21.2148148,0.0444444444 17.9407407,0.0444444444 L17.9407407,0.0444444444 L17.9407407,0.0444444444 Z M21.6888889,8.02962963 L21.6888889,10.237037 L21.6888889,17.9851852 C21.6888889,20.0444444 20,21.7333333 17.9407407,21.7333333 L6,21.7333333 C3.94074074,21.7333333 2.25185185,20.0444444 2.25185185,17.9851852 L2.25185185,10.237037 L2.25185185,8.02962963 L2.25185185,5.97037037 C2.25185185,3.91111111 3.94074074,2.22222222 6,2.22222222 L17.9407407,2.22222222 C20,2.22222222 21.6888889,3.91111111 21.6888889,5.97037037 L21.6888889,8.02962963 L21.6888889,8.02962963 Z" id="Shape"></path>
                                    <g id="twitter" transform="translate(5.629630, 6.518519)">
                                        <path d="M12.562963,2.9037037 L12.562963,3.27407407 C12.562963,7.02222222 9.71851852,11.3481481 4.48888889,11.3481481 C2.9037037,11.3481481 1.39259259,10.8740741 0.118518519,10.0888889 C0.340740741,10.1185185 0.548148148,10.1185185 0.814814815,10.1185185 C2.14814815,10.1185185 3.37777778,9.64444444 4.34074074,8.9037037 C3.12592593,8.87407407 2.02962963,8.07407407 1.65925926,6.91851852 C1.83703704,6.94814815 2.02962963,6.94814815 2.20740741,6.94814815 C2.45925926,6.94814815 2.71111111,6.91851852 2.97777778,6.84444444 C1.68888889,6.59259259 0.711111111,5.43703704 0.711111111,4.05925926 L0.711111111,4.02962963 C1.11111111,4.25185185 1.54074074,4.35555556 2,4.4 C1.22962963,3.8962963 0.740740741,3.03703704 0.740740741,2.01481481 C0.740740741,1.51111111 0.888888889,1.00740741 1.14074074,0.577777778 C2.54814815,2.31111111 4.63703704,3.42222222 6.97777778,3.52592593 C6.94814815,3.3037037 6.9037037,3.0962963 6.9037037,2.87407407 C6.9037037,1.33333333 8.16296296,0.0296296296 9.74814815,0.0296296296 C10.5777778,0.0296296296 11.2888889,0.4 11.8074074,0.933333333 C12.4592593,0.785185185 13.0666667,0.562962963 13.6148148,0.237037037 C13.3925926,0.888888889 12.962963,1.45185185 12.3555556,1.82222222 C12.9333333,1.74814815 13.4666667,1.6 13.9703704,1.39259259 C13.6,1.98518519 13.1407407,2.5037037 12.562963,2.9037037 L12.562963,2.9037037 L12.562963,2.9037037 Z" id="Shape"></path>
                                    </g>
                                </g>
                            </g>
                        </g>
                    </g>
                </g>
            </g>
            <g id="ic-instagram" transform="translate(53.000000, 0.000000)" sketch:type="MSShapeGroup">
                <g id="Page-1">
                    <g id="ic-instagram">
                        <g id="Page-1">
                            <g id="INSTAGRAM">
                                <g id="Group">
                                    <path d="M17.9407407,0.0444444444 L6,0.0444444444 C2.72592593,0.0444444444 0.0444444444,2.72592593 0.0444444444,6 L0.0444444444,18 C0.0444444444,21.2740741 2.72592593,23.9555556 6,23.9555556 L17.9407407,23.9555556 C21.2148148,23.9555556 23.8962963,21.2740741 23.8962963,18 L23.8962963,6 C23.8814815,2.71111111 21.2148148,0.0444444444 17.9407407,0.0444444444 L17.9407407,0.0444444444 L17.9407407,0.0444444444 Z M6,2.25185185 L17.9407407,2.25185185 C20,2.25185185 21.6888889,3.94074074 21.6888889,6 L21.6888889,8.05925926 L15.3777778,8.05925926 C14.4296296,7.40740741 13.3185185,7.02222222 12.1037037,7.02222222 C10.8888889,7.02222222 9.76296296,7.42222222 8.82962963,8.05925926 L2.26666667,8.05925926 L2.26666667,6 C2.25185185,3.94074074 3.94074074,2.25185185 6,2.25185185 L6,2.25185185 L6,2.25185185 Z M14.4444444,12.6518519 C14.4444444,13.9407407 13.4074074,14.9925926 12.1037037,14.9925926 C10.8,14.9925926 9.76296296,13.9555556 9.76296296,12.6518519 C9.76296296,11.362963 10.8,10.3111111 12.1037037,10.3111111 C13.3925926,10.3111111 14.4444444,11.362963 14.4444444,12.6518519 L14.4444444,12.6518519 L14.4444444,12.6518519 Z M17.9407407,21.762963 L6,21.762963 C3.94074074,21.762963 2.25185185,20.0740741 2.25185185,18.0148148 L2.25185185,10.2222222 L6.97777778,10.2222222 C6.60740741,10.9481481 6.42962963,11.762963 6.42962963,12.637037 C6.42962963,15.762963 8.96296296,18.2962963 12.0888889,18.2962963 C15.2148148,18.2962963 17.7481481,15.762963 17.7481481,12.637037 C17.7481481,11.762963 17.5703704,10.9777778 17.2,10.2222222 L21.6740741,10.2222222 L21.6740741,17.9703704 C21.6888889,20.0740741 20,21.762963 17.9407407,21.762963 L17.9407407,21.762963 L17.9407407,21.762963 Z" id="Shape"></path>
                                    <path d="M19.9555556,6.31111111 C19.9555556,6.68148148 19.6592593,6.96296296 19.3037037,6.96296296 L17.2444444,6.96296296 C16.8740741,6.96296296 16.5925926,6.66666667 16.5925926,6.31111111 L16.5925926,4.25185185 C16.5925926,3.88148148 16.8888889,3.6 17.2444444,3.6 L19.3037037,3.6 C19.6740741,3.6 19.9555556,3.8962963 19.9555556,4.25185185 L19.9555556,6.31111111 L19.9555556,6.31111111 Z" id="Shape"></path>
                                </g>
                            </g>
                        </g>
                    </g>
                </g>
            </g>
            <g id="ic-facebook" sketch:type="MSShapeGroup">
                <g id="Page-1">
                    <g id="ic-facebook">
                        <g id="Page-1">
                            <g id="FACEBOOK">
                                <g id="Group">
                                    <path d="M18.0148148,0.0444444444 L6.07407407,0.0444444444 C2.8,0.0444444444 0.118518519,2.72592593 0.118518519,6 L0.118518519,18 C0.118518519,21.2740741 2.8,23.9555556 6.07407407,23.9555556 L18.0148148,23.9555556 C21.2888889,23.9555556 23.9703704,21.2740741 23.9703704,18 L23.9703704,6 C23.9703704,2.71111111 21.2888889,0.0444444444 18.0148148,0.0444444444 L18.0148148,0.0444444444 L18.0148148,0.0444444444 Z M21.762963,8.02962963 L21.762963,10.237037 L21.762963,17.9851852 C21.762963,20.0444444 20.0740741,21.7333333 18.0148148,21.7333333 L6.07407407,21.7333333 C4.01481481,21.7333333 2.32592593,20.0444444 2.32592593,17.9851852 L2.32592593,10.237037 L2.32592593,8.02962963 L2.32592593,5.97037037 C2.32592593,3.91111111 4.01481481,2.22222222 6.07407407,2.22222222 L18.0148148,2.22222222 C20.0740741,2.22222222 21.762963,3.91111111 21.762963,5.97037037 L21.762963,8.02962963 L21.762963,8.02962963 Z" id="Shape"></path>
                                    <path d="M15.4222222,6.71111111 C15.4222222,6.71111111 13.6592593,6.38518519 13.2592593,6.88888889 C12.637037,7.18518519 12.8592593,9.12592593 12.8592593,9.12592593 L15.0666667,9.12592593 L15.0666667,11.1111111 L12.8592593,11.1111111 L12.8592593,19.8222222 L10.2518519,19.8222222 L10.2518519,11.1111111 L8.63703704,11.1111111 L8.63703704,9.12592593 L10.2962963,9.12592593 C10.1481481,9.12592593 10.3703704,7.21481481 10.4,6.99259259 C10.5037037,6.02962963 11.2,5.18518519 12.1333333,4.85925926 C13.3925926,4.42962963 14.5481481,4.68148148 15.7777778,4.96296296 C15.6296296,5.55555556 15.5259259,6.14814815 15.4222222,6.71111111 L15.4222222,6.71111111 L15.4222222,6.71111111 Z" id="Shape"></path>
                                </g>
                            </g>
                        </g>
                    </g>
                </g>
            </g>
            <g id="social_white_new" transform="translate(107.000000, 0.000000)" sketch:type="MSShapeGroup">
                <path d="M20.339,3.882 C22.616,6.16 23.756,8.903 23.756,12.087 C23.756,15.293 22.616,18.036 20.339,20.316 C18.087,22.569 15.341,23.709 12.137,23.709 C8.928,23.709 6.187,22.57 3.908,20.316 C1.654,18.037 0.514,15.295 0.514,12.088 C0.514,8.88 1.654,6.138 3.908,3.882 C6.187,1.604 8.929,0.466 12.137,0.466 C15.318,0.465 18.062,1.604 20.339,3.882 L20.339,3.882 Z M12.137,13.109 L19.388,7.67 C19.388,7.182 18.968,6.764 18.479,6.764 L5.79,6.764 C5.304,6.764 4.861,7.182 4.861,7.67 L12.137,13.109 L12.137,13.109 Z M19.388,9.552 L12.137,14.99 L4.862,9.552 L4.862,16.503 C4.862,16.99 5.304,17.408 5.791,17.408 L18.479,17.408 C18.968,17.408 19.388,16.99 19.388,16.503 L19.388,9.552 L19.388,9.552 L19.388,9.552 Z" id="Shape"></path>
            </g>
        </g>
    </g>
</svg>